<?xml version="1.0" encoding="utf-8"?>
<!-- Generator: Adobe Illustrator 24.1.3, SVG Export Plug-In . SVG Version: 6.00 Build 0)  -->
<svg version="1.1" id="github" xmlns="http://www.w3.org/2000/svg" xmlns:xlink="http://www.w3.org/1999/xlink" x="0px" y="0px"
	 viewBox="0 0 100 100" style="enable-background:new 0 0 100 100;" xml:space="preserve">
<style type="text/css">
	.st0{fill:#C6B23B;}
</style>
<g>
	<path class="st0" d="M58,31c-2.5-1.1-5.2-1.6-8-1.6S44.5,30,42,31c-2.4,1-4.7,2.5-6.5,4.4S32.1,39.5,31,42c-1.1,2.5-1.6,5.2-1.6,8
		s0.5,5.5,1.6,8c1,2.4,2.5,4.7,4.4,6.5s4.1,3.4,6.5,4.4c0.7,0.3,1.4,0.5,2.1,0.8V66c0-1.9,0.7-3.4,2-4.3c-0.8-0.1-1.6-0.2-2.3-0.3
		c-0.7-0.1-1.4-0.4-2.2-0.6c-0.8-0.3-1.5-0.6-2.1-1c-0.6-0.4-1.2-0.9-1.8-1.5c-0.6-0.6-1-1.3-1.4-2s-0.7-1.7-0.9-2.7
		c-0.2-1.1-0.3-2.2-0.3-3.5c0-2.5,0.8-4.6,2.4-6.3c-0.7-1.9-0.7-4,0.2-6.2c0,0,0.1,0,0.2,0s0.4,0,0.8,0s0.8,0.1,1.3,0.3
		c0.5,0.1,1.1,0.4,1.8,0.8c0.8,0.4,1.6,0.8,2.4,1.4c1.9-0.5,3.8-0.8,5.9-0.8c2,0,4,0.3,5.9,0.8c1.3-0.9,2.5-1.6,3.6-2
		c1.1-0.4,1.8-0.6,2.2-0.5l0.6,0.1c0.9,2.2,1,4.3,0.2,6.2c1.6,1.7,2.4,3.8,2.4,6.3c0,1.3-0.1,2.4-0.3,3.5c-0.2,1.1-0.5,2-0.9,2.7
		s-0.9,1.4-1.4,2c-0.6,0.6-1.2,1.1-1.8,1.5c-0.6,0.4-1.3,0.7-2.1,1c-0.8,0.3-1.5,0.5-2.2,0.6c-0.7,0.1-1.5,0.3-2.3,0.3
		c1.3,0.9,2,2.3,2,4.3v3.7c0.6-0.2,1.3-0.4,1.9-0.7c2.4-1,4.7-2.5,6.5-4.4c1.9-1.9,3.4-4.1,4.4-6.5c1.1-2.5,1.6-5.2,1.6-8
		S70,44.5,69,42c-1-2.4-2.5-4.7-4.4-6.5S60.5,32.1,58,31z"/>
	<path class="st0" d="M50,2C23.5,2,2,23.5,2,50s21.5,48,48,48s48-21.5,48-48S76.5,2,50,2z M50,74.5c-13.5,0-24.5-11-24.5-24.5
		s11-24.5,24.5-24.5s24.5,11,24.5,24.5S63.5,74.5,50,74.5z"/>
</g>
</svg>
